# xmcd
# Track frame offsets:
# 150
# 15788
# 34916
# 52910
# 71474
# 88486
# 106959
# 120279
# 135116
# 153294
# 170836
# 185086
#
# Disc length: 2700 seconds
# Revision: 0
# Processed by: cddbd v1.5PL3 Copyright (c) Steve Scherf et al.
# Submitted via: VisiTrax 2.9.9.202 - For more info visit www.synapsa.com
#
DISCID=910a8a0c
DTITLE=Tim Schneider - Country Ain´t Where You´re From
DYEAR=1994
DGENRE=
TTITLE0=Country Ain´t Where You`re From
TTITLE1=Hang Him High
TTITLE2=One Lucky Man
TTITLE3=So Help Me
TTITLE4=Me The Moon And The Radio
TTITLE5=Edge Of Tears
TTITLE6=Sticks And Stones
TTITLE7=I Could Dance All Night
TTITLE8=Last Goodbye
TTITLE9=Only A Dance
TTITLE10=Between Love And A Heartache
TTITLE11=Gone Too Long
EXTD=
EXTT0=
EXTT1=
EXTT2=
EXTT3=
EXTT4=
EXTT5=
EXTT6=
EXTT7=
EXTT8=
EXTT9=
EXTT10=
EXTT11=
PLAYORDER=
